<svg width="2425" height="3496" viewBox="0 0 2425 3496" fill="none" xmlns="http://www.w3.org/2000/svg">
<path d="M655.162 1894.64H2402.23V3203.89L1528.7 3278.58L655.162 3203.89V1894.64Z" fill="url(#paint0_linear_112_407)"/>
<path d="M655.162 1894.64H2402.23V3203.89L1528.7 3278.58L655.162 3203.89V1894.64Z" fill="url(#paint1_linear_112_407)"/>
<path fill-rule="evenodd" clip-rule="evenodd" d="M1328.27 15.5071C1642.69 -41.5694 1997.27 57.5731 2191.24 335.186C2376.17 599.858 2480.74 1611.51 2394.15 1929.1C2321.42 2195.8 2062.19 1867.63 1846.16 2014.98C1603.77 2180.32 1254.43 2189.45 973.291 2126.78C589.104 2041.14 71.3699 1933.89 5.6103 1512.18C-59.93 1091.89 464.961 905.233 735.133 599.516C929.613 379.449 1051.34 65.7788 1328.27 15.5071Z" fill="url(#paint2_linear_112_407)"/>
<path fill-rule="evenodd" clip-rule="evenodd" d="M1328.27 15.5071C1642.69 -41.5694 1997.27 57.5731 2191.24 335.186C2376.17 599.858 2480.74 1611.51 2394.15 1929.1C2321.42 2195.8 2062.19 1867.63 1846.16 2014.98C1603.77 2180.32 1254.43 2189.45 973.291 2126.78C589.104 2041.14 71.3699 1933.89 5.6103 1512.18C-59.93 1091.89 464.961 905.233 735.133 599.516C929.613 379.449 1051.34 65.7788 1328.27 15.5071Z" fill="url(#paint3_linear_112_407)"/>
<path d="M2402.23 3203.89C2402.23 3283.7 2011.14 3496 1528.7 3496C1046.26 3496 655.162 3283.7 655.162 3203.89C655.162 3124.07 1046.26 3017.2 1528.7 3017.2C2011.14 3017.2 2402.23 3124.07 2402.23 3203.89Z" fill="url(#paint4_linear_112_407)"/>
<path d="M2402.23 3203.89C2402.23 3283.7 2011.14 3496 1528.7 3496C1046.26 3496 655.162 3283.7 655.162 3203.89C655.162 3124.07 1046.26 3017.2 1528.7 3017.2C2011.14 3017.2 2402.23 3124.07 2402.23 3203.89Z" fill="url(#paint5_linear_112_407)"/>
<defs>
<linearGradient id="paint0_linear_112_407" x1="500" y1="1248" x2="2332.65" y2="770.339" gradientUnits="userSpaceOnUse">
<stop offset="0.254808" stop-color="#2F9EC4"/>
<stop offset="1" stop-color="#394F53"/>
</linearGradient>
<linearGradient id="paint1_linear_112_407" x1="1341.5" y1="533.83" x2="1200.18" y2="2825.21" gradientUnits="userSpaceOnUse">
<stop offset="0.384615" stop-color="#319DDA" stop-opacity="0"/>
<stop offset="0.701923" stop-color="#309EC4" stop-opacity="0.25"/>
<stop offset="1" stop-color="#395257" stop-opacity="0.33"/>
</linearGradient>
<linearGradient id="paint2_linear_112_407" x1="500" y1="1248" x2="2332.65" y2="770.339" gradientUnits="userSpaceOnUse">
<stop offset="0.254808" stop-color="#2F9EC4"/>
<stop offset="1" stop-color="#394F53"/>
</linearGradient>
<linearGradient id="paint3_linear_112_407" x1="1341.5" y1="533.83" x2="1200.18" y2="2825.21" gradientUnits="userSpaceOnUse">
<stop offset="0.384615" stop-color="#319DDA" stop-opacity="0"/>
<stop offset="0.701923" stop-color="#309EC4" stop-opacity="0.25"/>
<stop offset="1" stop-color="#395257" stop-opacity="0.33"/>
</linearGradient>
<linearGradient id="paint4_linear_112_407" x1="500" y1="1248" x2="2332.65" y2="770.339" gradientUnits="userSpaceOnUse">
<stop offset="0.254808" stop-color="#2F9EC4"/>
<stop offset="1" stop-color="#394F53"/>
</linearGradient>
<linearGradient id="paint5_linear_112_407" x1="1341.5" y1="533.83" x2="1200.18" y2="2825.21" gradientUnits="userSpaceOnUse">
<stop offset="0.384615" stop-color="#319DDA" stop-opacity="0"/>
<stop offset="0.701923" stop-color="#309EC4" stop-opacity="0.25"/>
<stop offset="1" stop-color="#395257" stop-opacity="0.33"/>
</linearGradient>
</defs>
</svg>
